<svg data-v-423bf9ae="" xmlns="http://www.w3.org/2000/svg" viewBox="0 0 533 112" class="iconLeft"><!----><!----><!----><g data-v-423bf9ae="" id="6b3e7f0d-2bf4-4d1b-a708-3964147597be" fill="#595758" transform="matrix(3.931848155293183,0,0,3.931848155293183,129.89112275203715,17.84913423977666)"><path d="M2.91 9.56L2.91 11.35L2.91 11.35Q2.91 11.93 2.94 12.26L2.94 12.26L2.94 12.26Q2.97 12.60 3.09 12.78L3.09 12.78L3.09 12.78Q3.21 12.95 3.43 13.01L3.43 13.01L3.43 13.01Q3.65 13.06 4.06 13.09L4.06 13.09L4.06 13.58L0.34 13.58L0.34 13.09L0.34 13.09Q0.74 13.06 0.98 13.01L0.98 13.01L0.98 13.01Q1.22 12.95 1.34 12.78L1.34 12.78L1.34 12.78Q1.47 12.61 1.51 12.30L1.51 12.30L1.51 12.30Q1.54 11.98 1.54 11.45L1.54 11.45L1.54 5.59L1.54 5.59Q1.54 4.76 1.52 4.27L1.52 4.27L1.52 4.27Q1.50 3.78 1.44 3.53L1.44 3.53L1.44 3.53Q1.41 3.36 1.35 3.25L1.35 3.25L1.35 3.25Q1.29 3.15 1.16 3.09L1.16 3.09L1.16 3.09Q1.04 3.02 0.83 3.00L0.83 3.00L0.83 3.00Q0.62 2.97 0.31 2.97L0.31 2.97L0.31 2.49L2.88 1.96L2.88 7.29L2.94 7.29L2.94 7.29Q3.15 7.01 3.46 6.78L3.46 6.78L3.46 6.78Q3.78 6.55 4.14 6.38L4.14 6.38L4.14 6.38Q4.51 6.22 4.91 6.12L4.91 6.12L4.91 6.12Q5.31 6.02 5.68 6.02L5.68 6.02L5.68 6.02Q6.33 6.02 6.87 6.24L6.87 6.24L6.87 6.24Q7.41 6.47 7.70 6.85L7.70 6.85L7.70 6.85Q7.94 7.17 8.05 7.69L8.05 7.69L8.05 7.69Q8.16 8.22 8.16 9.11L8.16 9.11L8.16 11.35L8.16 11.35Q8.16 11.93 8.19 12.26L8.19 12.26L8.19 12.26Q8.22 12.59 8.34 12.77L8.34 12.77L8.34 12.77Q8.46 12.95 8.68 13.01L8.68 13.01L8.68 13.01Q8.90 13.06 9.31 13.09L9.31 13.09L9.31 13.58L5.60 13.58L5.60 13.09L5.60 13.09Q5.99 13.08 6.23 13.01L6.23 13.01L6.23 13.01Q6.47 12.95 6.59 12.78L6.59 12.78L6.59 12.78Q6.71 12.61 6.74 12.30L6.74 12.30L6.74 12.30Q6.78 11.98 6.78 11.45L6.78 11.45L6.78 9.69L6.78 9.69Q6.78 8.12 6.41 7.46L6.41 7.46L6.41 7.46Q6.05 6.79 5.19 6.79L5.19 6.79L5.19 6.79Q4.54 6.79 4.00 7.13L4.00 7.13L4.00 7.13Q3.46 7.46 3.15 8.05L3.15 8.05L3.15 8.05Q3.08 8.20 3.03 8.34L3.03 8.34L3.03 8.34Q2.98 8.47 2.95 8.64L2.95 8.64L2.95 8.64Q2.93 8.81 2.92 9.02L2.92 9.02L2.92 9.02Q2.91 9.24 2.91 9.56L2.91 9.56ZM14.52 10.54L14.52 9.44L14.52 9.44Q13.72 9.74 13.17 10.04L13.17 10.04L13.17 10.04Q12.61 10.33 12.28 10.63L12.28 10.63L12.28 10.63Q11.94 10.92 11.79 11.21L11.79 11.21L11.79 11.21Q11.65 11.51 11.65 11.82L11.65 11.82L11.65 11.82Q11.65 12.28 11.96 12.57L11.96 12.57L11.96 12.57Q12.26 12.87 12.77 12.87L12.77 12.87L12.77 12.87Q13.13 12.87 13.45 12.68L13.45 12.68L13.45 12.68Q13.76 12.50 14 12.19L14 12.19L14 12.19Q14.24 11.87 14.38 11.45L14.38 11.45L14.38 11.45Q14.52 11.02 14.52 10.54L14.52 10.54ZM12.50 9.72L14.52 8.83L14.52 8.26L14.52 8.26Q14.52 6.55 13.06 6.55L13.06 6.55L13.06 6.55Q12.82 6.55 12.66 6.59L12.66 6.59L12.66 6.59Q12.49 6.64 12.38 6.73L12.38 6.73L12.38 6.73Q12.26 6.83 12.17 7.01L12.17 7.01L12.17 7.01Q12.08 7.20 12.00 7.46L12.00 7.46L12.00 7.46Q11.84 7.87 11.70 8.00L11.70 8.00L11.70 8.00Q11.55 8.13 11.27 8.13L11.27 8.13L11.27 8.13Q10.57 8.13 10.57 7.43L10.57 7.43L10.57 7.43Q10.57 6.76 11.28 6.39L11.28 6.39L11.28 6.39Q12.00 6.02 13.31 6.02L13.31 6.02L13.31 6.02Q14.71 6.02 15.30 6.52L15.30 6.52L15.30 6.52Q15.89 7.01 15.89 8.20L15.89 8.20L15.89 11.34L15.89 11.34Q15.89 12.94 16.52 12.94L16.52 12.94L16.52 12.94Q16.72 12.94 16.90 12.89L16.90 12.89L16.90 12.89Q17.08 12.84 17.21 12.63L17.21 12.63L17.40 12.96L17.40 12.96Q17.23 13.29 16.79 13.50L16.79 13.50L16.79 13.50Q16.34 13.72 15.85 13.72L15.85 13.72L15.85 13.72Q15.23 13.72 14.93 13.33L14.93 13.33L14.93 13.33Q14.63 12.94 14.63 12.22L14.63 12.22L14.56 12.22L14.56 12.22Q14.20 12.91 13.55 13.31L13.55 13.31L13.55 13.31Q12.91 13.71 12.12 13.71L12.12 13.71L12.12 13.71Q11.24 13.71 10.74 13.26L10.74 13.26L10.74 13.26Q10.23 12.81 10.23 12.05L10.23 12.05L10.23 12.05Q10.23 11.72 10.35 11.41L10.35 11.41L10.35 11.41Q10.47 11.10 10.74 10.82L10.74 10.82L10.74 10.82Q11.00 10.54 11.44 10.27L11.44 10.27L11.44 10.27Q11.87 10.00 12.50 9.72L12.50 9.72ZM20.33 6.08L20.33 7.17L20.38 7.17L20.38 7.17Q20.83 6.64 21.35 6.33L21.35 6.33L21.35 6.33Q21.87 6.02 22.55 6.02L22.55 6.02L22.55 6.02Q23.35 6.02 24.02 6.31L24.02 6.31L24.02 6.31Q24.68 6.59 25.17 7.11L25.17 7.11L25.17 7.11Q25.66 7.63 25.93 8.34L25.93 8.34L25.93 8.34Q26.21 9.04 26.21 9.88L26.21 9.88L26.21 9.88Q26.21 10.74 25.93 11.45L25.93 11.45L25.93 11.45Q25.65 12.15 25.16 12.66L25.16 12.66L25.16 12.66Q24.67 13.16 24.00 13.44L24.00 13.44L24.00 13.44Q23.32 13.72 22.54 13.72L22.54 13.72L22.54 13.72Q21.90 13.72 21.37 13.50L21.37 13.50L21.37 13.50Q20.85 13.29 20.38 12.80L20.38 12.80L20.38 14.84L20.38 14.84Q20.38 15.40 20.44 15.74L20.44 15.74L20.44 15.74Q20.50 16.07 20.66 16.25L20.66 16.25L20.66 16.25Q20.83 16.44 21.15 16.51L21.15 16.51L21.15 16.51Q21.46 16.58 21.98 16.59L21.98 16.59L21.98 17.08L17.67 17.08L17.67 16.59L17.67 16.59Q18.09 16.58 18.35 16.51L18.35 16.51L18.35 16.51Q18.61 16.44 18.75 16.25L18.75 16.25L18.75 16.25Q18.90 16.07 18.96 15.76L18.96 15.76L18.96 15.76Q19.01 15.44 19.01 14.94L19.01 14.94L19.01 9.70L19.01 9.70Q19.01 8.89 18.99 8.37L18.99 8.37L18.99 8.37Q18.97 7.85 18.91 7.66L18.91 7.66L18.91 7.66Q18.84 7.32 18.59 7.20L18.59 7.20L18.59 7.20Q18.34 7.08 17.64 7.08L17.64 7.08L17.64 6.61L20.33 6.08ZM20.75 7.57L20.75 7.57L20.75 7.57Q20.57 7.85 20.47 8.24L20.47 8.24L20.47 8.24Q20.38 8.62 20.38 9.24L20.38 9.24L20.38 10.33L20.38 10.33Q20.38 10.71 20.40 10.98L20.40 10.98L20.40 10.98Q20.43 11.26 20.47 11.45L20.47 11.45L20.47 11.45Q20.51 11.65 20.58 11.80L20.58 11.80L20.58 11.80Q20.65 11.96 20.76 12.10L20.76 12.10L20.76 12.10Q21.08 12.54 21.53 12.79L21.53 12.79L21.53 12.79Q21.98 13.03 22.47 13.03L22.47 13.03L22.47 13.03Q23.44 13.03 24.03 12.22L24.03 12.22L24.03 12.22Q24.63 11.41 24.63 9.94L24.63 9.94L24.63 9.94Q24.63 9.21 24.46 8.62L24.46 8.62L24.46 8.62Q24.30 8.02 24.01 7.59L24.01 7.59L24.01 7.59Q23.72 7.17 23.30 6.93L23.30 6.93L23.30 6.93Q22.89 6.69 22.39 6.69L22.39 6.69L22.39 6.69Q21.88 6.69 21.45 6.92L21.45 6.92L21.45 6.92Q21.03 7.15 20.75 7.57ZM29.83 6.08L29.83 7.17L29.89 7.17L29.89 7.17Q30.34 6.64 30.86 6.33L30.86 6.33L30.86 6.33Q31.37 6.02 32.06 6.02L32.06 6.02L32.06 6.02Q32.86 6.02 33.52 6.31L33.52 6.31L33.52 6.31Q34.19 6.59 34.68 7.11L34.68 7.11L34.68 7.11Q35.17 7.63 35.44 8.34L35.44 8.34L35.44 8.34Q35.71 9.04 35.71 9.88L35.71 9.88L35.71 9.88Q35.71 10.74 35.43 11.45L35.43 11.45L35.43 11.45Q35.15 12.15 34.66 12.66L34.66 12.66L34.66 12.66Q34.17 13.16 33.50 13.44L33.50 13.44L33.50 13.44Q32.83 13.72 32.05 13.72L32.05 13.72L32.05 13.72Q31.40 13.72 30.88 13.50L30.88 13.50L30.88 13.50Q30.35 13.29 29.89 12.80L29.89 12.80L29.89 14.84L29.89 14.84Q29.89 15.40 29.95 15.74L29.95 15.74L29.95 15.74Q30.00 16.07 30.17 16.25L30.17 16.25L30.17 16.25Q30.34 16.44 30.65 16.51L30.65 16.51L30.65 16.51Q30.97 16.58 31.49 16.59L31.49 16.59L31.49 17.08L27.17 17.08L27.17 16.59L27.17 16.59Q27.59 16.58 27.85 16.51L27.85 16.51L27.85 16.51Q28.11 16.44 28.26 16.25L28.26 16.25L28.26 16.25Q28.41 16.07 28.46 15.76L28.46 15.76L28.46 15.76Q28.52 15.44 28.52 14.94L28.52 14.94L28.52 9.70L28.52 9.70Q28.52 8.89 28.50 8.37L28.50 8.37L28.50 8.37Q28.48 7.85 28.42 7.66L28.42 7.66L28.42 7.66Q28.35 7.32 28.10 7.20L28.10 7.20L28.10 7.20Q27.85 7.08 27.15 7.08L27.15 7.08L27.15 6.61L29.83 6.08ZM30.25 7.57L30.25 7.57L30.25 7.57Q30.07 7.85 29.98 8.24L29.98 8.24L29.98 8.24Q29.89 8.62 29.89 9.24L29.89 9.24L29.89 10.33L29.89 10.33Q29.89 10.71 29.91 10.98L29.91 10.98L29.91 10.98Q29.93 11.26 29.97 11.45L29.97 11.45L29.97 11.45Q30.02 11.65 30.09 11.80L30.09 11.80L30.09 11.80Q30.16 11.96 30.27 12.10L30.27 12.10L30.27 12.10Q30.59 12.54 31.04 12.79L31.04 12.79L31.04 12.79Q31.49 13.03 31.98 13.03L31.98 13.03L31.98 13.03Q32.94 13.03 33.54 12.22L33.54 12.22L33.54 12.22Q34.13 11.41 34.13 9.94L34.13 9.94L34.13 9.94Q34.13 9.21 33.97 8.62L33.97 8.62L33.97 8.62Q33.81 8.02 33.52 7.59L33.52 7.59L33.52 7.59Q33.22 7.17 32.81 6.93L32.81 6.93L32.81 6.93Q32.40 6.69 31.89 6.69L31.89 6.69L31.89 6.69Q31.39 6.69 30.96 6.92L30.96 6.92L30.96 6.92Q30.53 7.15 30.25 7.57ZM43.13 8.99L40.08 15.78L40.08 15.78Q39.44 17.22 38.08 17.22L38.08 17.22L38.08 17.22Q37.20 17.22 37.20 16.56L37.20 16.56L37.20 16.56Q37.20 16.21 37.44 16.05L37.44 16.05L37.44 16.05Q37.69 15.89 38.35 15.78L38.35 15.78L38.35 15.78Q38.64 15.74 38.85 15.66L38.85 15.66L38.85 15.66Q39.06 15.58 39.23 15.46L39.23 15.46L39.23 15.46Q39.40 15.34 39.53 15.16L39.53 15.16L39.53 15.16Q39.66 14.98 39.79 14.71L39.79 14.71L40.28 13.73L37.59 7.90L37.59 7.90Q37.41 7.50 37.27 7.27L37.27 7.27L37.27 7.27Q37.14 7.04 36.99 6.91L36.99 6.91L36.99 6.91Q36.85 6.78 36.67 6.73L36.67 6.73L36.67 6.73Q36.48 6.68 36.20 6.65L36.20 6.65L36.20 6.16L39.91 6.16L39.91 6.65L39.91 6.65Q38.98 6.65 38.98 7.11L38.98 7.11L38.98 7.11Q38.98 7.29 39.09 7.69L39.09 7.69L39.09 7.69Q39.20 8.08 39.37 8.48L39.37 8.48L40.91 12.21L40.98 12.21L42.25 9.06L42.25 9.06Q42.43 8.60 42.55 8.30L42.55 8.30L42.55 8.30Q42.67 8.01 42.73 7.82L42.73 7.82L42.73 7.82Q42.80 7.63 42.82 7.50L42.82 7.50L42.82 7.50Q42.84 7.38 42.84 7.27L42.84 7.27L42.84 7.27Q42.84 6.90 42.64 6.78L42.64 6.78L42.64 6.78Q42.43 6.65 41.86 6.65L41.86 6.65L41.86 6.16L44.94 6.16L44.94 6.65L44.94 6.65Q44.67 6.65 44.49 6.72L44.49 6.72L44.49 6.72Q44.31 6.79 44.12 7.04L44.12 7.04L44.12 7.04Q43.93 7.28 43.70 7.74L43.70 7.74L43.70 7.74Q43.47 8.20 43.13 8.99L43.13 8.99ZM51.34 9.41L51.34 10.65L51.34 10.65Q51.34 11.19 51.49 11.63L51.49 11.63L51.49 11.63Q51.65 12.07 51.92 12.38L51.92 12.38L51.92 12.38Q52.19 12.70 52.58 12.88L52.58 12.88L52.58 12.88Q52.96 13.06 53.41 13.06L53.41 13.06L53.41 13.06Q53.90 13.06 54.30 12.84L54.30 12.84L54.30 12.84Q54.70 12.61 54.98 12.20L54.98 12.20L54.98 12.20Q55.27 11.79 55.43 11.21L55.43 11.21L55.43 11.21Q55.59 10.63 55.59 9.91L55.59 9.91L55.59 9.91Q55.59 9.20 55.43 8.60L55.43 8.60L55.43 8.60Q55.26 8.01 54.96 7.58L54.96 7.58L54.96 7.58Q54.67 7.15 54.26 6.92L54.26 6.92L54.26 6.92Q53.84 6.68 53.35 6.68L53.35 6.68L53.35 6.68Q52.78 6.68 52.33 6.95L52.33 6.95L52.33 6.95Q51.88 7.22 51.65 7.71L51.65 7.71L51.65 7.71Q51.34 8.33 51.34 9.41L51.34 9.41ZM51.31 1.96L51.31 7.15L51.37 7.15L51.37 7.15Q51.81 6.57 52.35 6.29L52.35 6.29L52.35 6.29Q52.89 6.02 53.61 6.02L53.61 6.02L53.61 6.02Q54.36 6.02 55.01 6.31L55.01 6.31L55.01 6.31Q55.66 6.61 56.15 7.13L56.15 7.13L56.15 7.13Q56.63 7.64 56.90 8.35L56.90 8.35L56.90 8.35Q57.18 9.06 57.18 9.87L57.18 9.87L57.18 9.87Q57.18 10.70 56.90 11.40L56.90 11.40L56.90 11.40Q56.62 12.11 56.13 12.63L56.13 12.63L56.13 12.63Q55.65 13.15 54.99 13.44L54.99 13.44L54.99 13.44Q54.33 13.73 53.56 13.73L53.56 13.73L53.56 13.73Q52.77 13.73 52.07 13.44L52.07 13.44L52.07 13.44Q51.38 13.15 50.93 12.64L50.93 12.64L50.27 13.58L49.97 13.58L49.97 5.12L49.97 5.12Q49.97 3.71 49.78 3.32L49.78 3.32L49.78 3.32Q49.74 3.22 49.69 3.16L49.69 3.16L49.69 3.16Q49.63 3.09 49.52 3.04L49.52 3.04L49.52 3.04Q49.41 3.00 49.21 2.95L49.21 2.95L49.21 2.95Q49.01 2.91 48.68 2.87L48.68 2.87L48.68 2.52L51.31 1.96ZM62.73 10.54L62.73 9.44L62.73 9.44Q61.94 9.74 61.38 10.04L61.38 10.04L61.38 10.04Q60.83 10.33 60.49 10.63L60.49 10.63L60.49 10.63Q60.16 10.92 60.01 11.21L60.01 11.21L60.01 11.21Q59.86 11.51 59.86 11.82L59.86 11.82L59.86 11.82Q59.86 12.28 60.17 12.57L60.17 12.57L60.17 12.57Q60.48 12.87 60.98 12.87L60.98 12.87L60.98 12.87Q61.35 12.87 61.66 12.68L61.66 12.68L61.66 12.68Q61.98 12.50 62.22 12.19L62.22 12.19L62.22 12.19Q62.45 11.87 62.59 11.45L62.59 11.45L62.59 11.45Q62.73 11.02 62.73 10.54L62.73 10.54ZM60.72 9.72L62.73 8.83L62.73 8.26L62.73 8.26Q62.73 6.55 61.28 6.55L61.28 6.55L61.28 6.55Q61.04 6.55 60.87 6.59L60.87 6.59L60.87 6.59Q60.70 6.64 60.59 6.73L60.59 6.73L60.59 6.73Q60.48 6.83 60.39 7.01L60.39 7.01L60.39 7.01Q60.30 7.20 60.21 7.46L60.21 7.46L60.21 7.46Q60.06 7.87 59.91 8.00L59.91 8.00L59.91 8.00Q59.77 8.13 59.49 8.13L59.49 8.13L59.49 8.13Q58.79 8.13 58.79 7.43L58.79 7.43L58.79 7.43Q58.79 6.76 59.50 6.39L59.50 6.39L59.50 6.39Q60.21 6.02 61.53 6.02L61.53 6.02L61.53 6.02Q62.93 6.02 63.52 6.52L63.52 6.52L63.52 6.52Q64.11 7.01 64.11 8.20L64.11 8.20L64.11 11.34L64.11 11.34Q64.11 12.94 64.74 12.94L64.74 12.94L64.74 12.94Q64.93 12.94 65.11 12.89L65.11 12.89L65.11 12.89Q65.30 12.84 65.42 12.63L65.42 12.63L65.62 12.96L65.62 12.96Q65.45 13.29 65.00 13.50L65.00 13.50L65.00 13.50Q64.55 13.72 64.06 13.72L64.06 13.72L64.06 13.72Q63.45 13.72 63.15 13.33L63.15 13.33L63.15 13.33Q62.85 12.94 62.85 12.22L62.85 12.22L62.78 12.22L62.78 12.22Q62.41 12.91 61.77 13.31L61.77 13.31L61.77 13.31Q61.12 13.71 60.34 13.71L60.34 13.71L60.34 13.71Q59.46 13.71 58.95 13.26L58.95 13.26L58.95 13.26Q58.45 12.81 58.45 12.05L58.45 12.05L58.45 12.05Q58.45 11.72 58.57 11.41L58.57 11.41L58.57 11.41Q58.69 11.10 58.95 10.82L58.95 10.82L58.95 10.82Q59.22 10.54 59.65 10.27L59.65 10.27L59.65 10.27Q60.09 10.00 60.72 9.72L60.72 9.72ZM68.53 1.96L68.53 11.40L68.53 11.40Q68.53 11.93 68.57 12.25L68.57 12.25L68.57 12.25Q68.61 12.57 68.75 12.75L68.75 12.75L68.75 12.75Q68.88 12.94 69.12 13.01L69.12 13.01L69.12 13.01Q69.37 13.08 69.78 13.09L69.78 13.09L69.78 13.58L65.91 13.58L65.91 13.09L65.91 13.09Q66.33 13.08 66.58 13.00L66.58 13.00L66.58 13.00Q66.84 12.92 66.98 12.75L66.98 12.75L66.98 12.75Q67.13 12.59 67.18 12.29L67.18 12.29L67.18 12.29Q67.23 11.98 67.23 11.49L67.23 11.49L67.23 5.46L67.23 5.46Q67.23 4.70 67.21 4.19L67.21 4.19L67.21 4.19Q67.19 3.68 67.14 3.50L67.14 3.50L67.14 3.50Q67.07 3.18 66.81 3.07L66.81 3.07L66.81 3.07Q66.56 2.95 65.88 2.95L65.88 2.95L65.88 2.48L68.53 1.96ZM75.04 10.54L75.04 9.44L75.04 9.44Q74.24 9.74 73.69 10.04L73.69 10.04L73.69 10.04Q73.14 10.33 72.80 10.63L72.80 10.63L72.80 10.63Q72.46 10.92 72.32 11.21L72.32 11.21L72.32 11.21Q72.17 11.51 72.17 11.82L72.17 11.82L72.17 11.82Q72.17 12.28 72.48 12.57L72.48 12.57L72.48 12.57Q72.79 12.87 73.29 12.87L73.29 12.87L73.29 12.87Q73.65 12.87 73.97 12.68L73.97 12.68L73.97 12.68Q74.28 12.50 74.52 12.19L74.52 12.19L74.52 12.19Q74.76 11.87 74.90 11.45L74.90 11.45L74.90 11.45Q75.04 11.02 75.04 10.54L75.04 10.54ZM73.02 9.72L75.04 8.83L75.04 8.26L75.04 8.26Q75.04 6.55 73.58 6.55L73.58 6.55L73.58 6.55Q73.35 6.55 73.18 6.59L73.18 6.59L73.18 6.59Q73.01 6.64 72.90 6.73L72.90 6.73L72.90 6.73Q72.79 6.83 72.69 7.01L72.69 7.01L72.69 7.01Q72.60 7.20 72.52 7.46L72.52 7.46L72.52 7.46Q72.37 7.87 72.22 8.00L72.22 8.00L72.22 8.00Q72.07 8.13 71.79 8.13L71.79 8.13L71.79 8.13Q71.09 8.13 71.09 7.43L71.09 7.43L71.09 7.43Q71.09 6.76 71.81 6.39L71.81 6.39L71.81 6.39Q72.52 6.02 73.84 6.02L73.84 6.02L73.84 6.02Q75.24 6.02 75.82 6.52L75.82 6.52L75.82 6.52Q76.41 7.01 76.41 8.20L76.41 8.20L76.41 11.34L76.41 11.34Q76.41 12.94 77.04 12.94L77.04 12.94L77.04 12.94Q77.24 12.94 77.42 12.89L77.42 12.89L77.42 12.89Q77.60 12.84 77.73 12.63L77.73 12.63L77.92 12.96L77.92 12.96Q77.76 13.29 77.31 13.50L77.31 13.50L77.31 13.50Q76.86 13.72 76.37 13.72L76.37 13.72L76.37 13.72Q75.75 13.72 75.45 13.33L75.45 13.33L75.45 13.33Q75.15 12.94 75.15 12.22L75.15 12.22L75.08 12.22L75.08 12.22Q74.72 12.91 74.07 13.31L74.07 13.31L74.07 13.31Q73.43 13.71 72.65 13.71L72.65 13.71L72.65 13.71Q71.76 13.71 71.26 13.26L71.26 13.26L71.26 13.26Q70.76 12.81 70.76 12.05L70.76 12.05L70.76 12.05Q70.76 11.72 70.87 11.41L70.87 11.41L70.87 11.41Q70.99 11.10 71.26 10.82L71.26 10.82L71.26 10.82Q71.53 10.54 71.96 10.27L71.96 10.27L71.96 10.27Q72.39 10.00 73.02 9.72L73.02 9.72ZM80.93 9.51L80.93 11.38L80.93 11.38Q80.93 11.96 80.96 12.29L80.96 12.29L80.96 12.29Q80.99 12.61 81.11 12.79L81.11 12.79L81.11 12.79Q81.23 12.96 81.46 13.02L81.46 13.02L81.46 13.02Q81.69 13.08 82.10 13.10L82.10 13.10L82.10 13.58L78.43 13.58L78.43 13.10L78.43 13.10Q78.82 13.08 79.05 13.02L79.05 13.02L79.05 13.02Q79.28 12.96 79.41 12.80L79.41 12.80L79.41 12.80Q79.53 12.63 79.57 12.32L79.57 12.32L79.57 12.32Q79.60 12.01 79.60 11.48L79.60 11.48L79.60 9.62L79.60 9.62Q79.60 7.95 79.52 7.59L79.52 7.59L79.52 7.59Q79.48 7.41 79.41 7.29L79.41 7.29L79.41 7.29Q79.35 7.17 79.23 7.10L79.23 7.10L79.23 7.10Q79.10 7.04 78.90 7.02L78.90 7.02L78.90 7.02Q78.71 7 78.40 7L78.40 7L78.40 6.55L80.64 6.02L80.81 7.41L80.86 7.41L80.86 7.41Q81.40 6.75 82.11 6.38L82.11 6.38L82.11 6.38Q82.82 6.02 83.66 6.02L83.66 6.02L83.66 6.02Q84.31 6.02 84.84 6.23L84.84 6.23L84.84 6.23Q85.37 6.44 85.65 6.80L85.65 6.80L85.65 6.80Q85.89 7.13 85.99 7.64L85.99 7.64L85.99 7.64Q86.09 8.15 86.09 9.04L86.09 9.04L86.09 11.38L86.09 11.38Q86.09 11.96 86.12 12.29L86.12 12.29L86.12 12.29Q86.16 12.61 86.27 12.79L86.27 12.79L86.27 12.79Q86.38 12.96 86.61 13.02L86.61 13.02L86.61 13.02Q86.84 13.08 87.22 13.10L87.22 13.10L87.22 13.58L83.59 13.58L83.59 13.10L83.59 13.10Q83.99 13.09 84.22 13.03L84.22 13.03L84.22 13.03Q84.45 12.96 84.57 12.80L84.57 12.80L84.57 12.80Q84.69 12.63 84.72 12.31L84.72 12.31L84.72 12.31Q84.76 12.00 84.76 11.48L84.76 11.48L84.76 9.63L84.76 9.63Q84.76 8.83 84.67 8.29L84.67 8.29L84.67 8.29Q84.59 7.74 84.40 7.41L84.40 7.41L84.40 7.41Q84.21 7.07 83.90 6.92L83.90 6.92L83.90 6.92Q83.59 6.78 83.16 6.78L83.16 6.78L83.16 6.78Q82.53 6.78 82.00 7.10L82.00 7.10L82.00 7.10Q81.48 7.43 81.19 8.01L81.19 8.01L81.19 8.01Q81.12 8.15 81.07 8.27L81.07 8.27L81.07 8.27Q81.02 8.40 80.99 8.57L80.99 8.57L80.99 8.57Q80.96 8.74 80.95 8.95L80.95 8.95L80.95 8.95Q80.93 9.17 80.93 9.51L80.93 9.51ZM94.22 12.01L94.64 12.42L94.64 12.42Q94.14 13.03 93.34 13.38L93.34 13.38L93.34 13.38Q92.54 13.72 91.62 13.72L91.62 13.72L91.62 13.72Q90.87 13.72 90.25 13.45L90.25 13.45L90.25 13.45Q89.63 13.17 89.18 12.68L89.18 12.68L89.18 12.68Q88.73 12.18 88.49 11.48L88.49 11.48L88.49 11.48Q88.24 10.78 88.24 9.93L88.24 9.93L88.24 9.93Q88.24 9.03 88.52 8.31L88.52 8.31L88.52 8.31Q88.80 7.59 89.31 7.08L89.31 7.08L89.31 7.08Q89.82 6.57 90.54 6.29L90.54 6.29L90.54 6.29Q91.27 6.02 92.13 6.02L92.13 6.02L92.13 6.02Q92.68 6.02 93.13 6.11L93.13 6.11L93.13 6.11Q93.58 6.20 93.90 6.36L93.90 6.36L93.90 6.36Q94.23 6.52 94.42 6.75L94.42 6.75L94.42 6.75Q94.60 6.99 94.60 7.25L94.60 7.25L94.60 7.25Q94.60 7.53 94.42 7.69L94.42 7.69L94.42 7.69Q94.23 7.84 93.91 7.84L93.91 7.84L93.91 7.84Q93.66 7.84 93.49 7.74L93.49 7.74L93.49 7.74Q93.32 7.63 93.06 7.27L93.06 7.27L93.06 7.27Q92.78 6.94 92.52 6.81L92.52 6.81L92.52 6.81Q92.26 6.68 91.85 6.68L91.85 6.68L91.85 6.68Q90.86 6.68 90.35 7.45L90.35 7.45L90.35 7.45Q89.84 8.22 89.84 9.72L89.84 9.72L89.84 9.72Q89.84 11.33 90.40 12.16L90.40 12.16L90.40 12.16Q90.97 12.99 92.06 12.99L92.06 12.99L92.06 12.99Q92.65 12.99 93.17 12.76L93.17 12.76L93.17 12.76Q93.69 12.53 94.22 12.01L94.22 12.01ZM101.93 11.89L102.37 12.28L102.37 12.28Q101.18 13.72 99.41 13.72L99.41 13.72L99.41 13.72Q98.59 13.72 97.92 13.45L97.92 13.45L97.92 13.45Q97.24 13.17 96.76 12.68L96.76 12.68L96.76 12.68Q96.28 12.18 96.01 11.49L96.01 11.49L96.01 11.49Q95.75 10.79 95.75 9.95L95.75 9.95L95.75 9.95Q95.75 9.10 96.03 8.37L96.03 8.37L96.03 8.37Q96.31 7.64 96.82 7.13L96.82 7.13L96.82 7.13Q97.33 6.61 98.03 6.31L98.03 6.31L98.03 6.31Q98.74 6.02 99.58 6.02L99.58 6.02L99.58 6.02Q100.94 6.02 101.68 6.75L101.68 6.75L101.68 6.75Q102.42 7.49 102.42 8.86L102.42 8.86L102.42 8.86Q102.42 9.06 102.35 9.10L102.35 9.10L102.35 9.10Q102.27 9.14 101.99 9.14L101.99 9.14L97.38 9.14L97.38 9.14Q97.36 9.25 97.34 9.41L97.34 9.41L97.34 9.41Q97.33 9.58 97.33 9.77L97.33 9.77L97.33 9.77Q97.33 10.50 97.50 11.10L97.50 11.10L97.50 11.10Q97.68 11.69 98.01 12.11L98.01 12.11L98.01 12.11Q98.34 12.53 98.79 12.76L98.79 12.76L98.79 12.76Q99.25 12.99 99.81 12.99L99.81 12.99L99.81 12.99Q100.39 12.99 100.90 12.73L100.90 12.73L100.90 12.73Q101.40 12.47 101.93 11.89L101.93 11.89ZM97.48 8.50L100.06 8.50L100.06 8.50Q100.34 8.50 100.51 8.48L100.51 8.48L100.51 8.48Q100.67 8.47 100.76 8.43L100.76 8.43L100.76 8.43Q100.84 8.39 100.87 8.31L100.87 8.31L100.87 8.31Q100.90 8.23 100.90 8.11L100.90 8.11L100.90 8.11Q100.90 7.46 100.48 7.08L100.48 7.08L100.48 7.08Q100.07 6.69 99.36 6.69L99.36 6.69L99.36 6.69Q97.85 6.69 97.48 8.50L97.48 8.50Z"></path></g><!----><g data-v-423bf9ae="" id="c20c3e30-d235-4a9c-8d3b-1e9ae86f44ea" transform="matrix(1.1111111111111112,0,0,1.1111111111111112,0.4425552563948756,0.4421111109356062)" stroke="none" fill="#FFD6DE"><path d="M90.907.021H9.136A9.114 9.114 0 0 0 .022 9.135v81.773a9.113 9.113 0 0 0 9.114 9.113h81.771a9.113 9.113 0 0 0 9.114-9.113V9.134A9.114 9.114 0 0 0 90.907.021zm-24.392 31.75a16.746 16.746 0 0 1-3.864 8l-1.351-1.35a1.139 1.139 0 1 0-1.611 1.612l1.35 1.349a16.691 16.691 0 0 1-11.018 4.143 16.697 16.697 0 0 1-11.018-4.143l1.351-1.349a1.14 1.14 0 0 0-1.611-1.612l-1.351 1.35a16.72 16.72 0 0 1-4.099-9.879h1.919c.624 0 1.129-.501 1.138-1.123l.001-.016a1.14 1.14 0 0 0-1.139-1.139h-1.907c.027-.396.07-.79.124-1.181a16.655 16.655 0 0 1 1.083-4.064 16.835 16.835 0 0 1 2.875-4.638l1.356 1.356a1.138 1.138 0 0 0 1.611 0 1.139 1.139 0 0 0 0-1.611l-1.36-1.361a16.71 16.71 0 0 1 9.889-4.09v1.918a1.14 1.14 0 0 0 2.279 0v-1.918a16.706 16.706 0 0 1 9.887 4.089l-1.359 1.361a1.139 1.139 0 1 0 1.611 1.611l1.358-1.356a16.814 16.814 0 0 1 2.873 4.638c.541 1.31.891 2.672 1.084 4.064.054.392.097.785.123 1.181h-1.904c-.63 0-1.141.51-1.141 1.139 0 .005.003.01.003.016a1.137 1.137 0 0 0 1.138 1.123h1.917a17.585 17.585 0 0 1-.237 1.88zm2.149-9.715A19.752 19.752 0 0 0 50.021 8.944a19.753 19.753 0 0 0-18.644 13.112c-9.229 1.389-17.975 3.783-26.039 7.031V9.134a3.802 3.802 0 0 1 3.798-3.797h81.771a3.802 3.802 0 0 1 3.797 3.797v19.953c-8.064-3.248-16.812-5.643-26.04-7.031zm22.871 72.015H8.246a1.898 1.898 0 1 1 0-3.796h83.29a1.897 1.897 0 1 1-.001 3.796z"></path><path d="M51.676 25.781l-.093-.391-.693-2.92-.995-4.19-.995 4.19-.693 2.922-.132.555a3.422 3.422 0 0 0-1.472 2.805c0 .738.238 1.415.635 1.973a3.407 3.407 0 0 0 2.783 1.444 3.407 3.407 0 0 0 2.783-1.444 3.387 3.387 0 0 0 .567-2.649 3.412 3.412 0 0 0-1.695-2.295z"></path></g><!----></svg>